<?xml version="1.0" standalone="no"?>
<!DOCTYPE svg PUBLIC "-//W3C//DTD SVG 20010904//EN"
 "http://www.w3.org/TR/2001/REC-SVG-20010904/DTD/svg10.dtd">
<svg version="1.0" xmlns="http://www.w3.org/2000/svg"
 width="256.000000pt" height="256.000000pt" viewBox="0 0 256.000000 256.000000"
 preserveAspectRatio="xMidYMid meet">
<metadata>
Created by potrace 1.11, written by Peter Selinger 2001-2013
</metadata>
<g transform="translate(0.000000,256.000000) scale(0.100000,-0.100000)"
fill="#000000" stroke="none">
<path d="M1208 2330 c-36 -27 -41 -66 -14 -97 29 -33 74 -38 104 -11 30 29 29
72 -3 103 -29 30 -54 32 -87 5z"/>
<path d="M1241 2036 c-8 -10 -10 -36 -6 -83 9 -97 12 -105 43 -101 26 3 27 5
27 68 1 93 -7 124 -31 128 -12 2 -26 -4 -33 -12z"/>
<path d="M294 1976 c-87 -38 -107 -170 -36 -237 61 -56 170 -43 217 27 80 119
-48 268 -181 210z"/>
<path d="M2154 1971 c-29 -18 -52 -60 -48 -88 1 -7 2 -21 3 -30 3 -30 39 -65
78 -73 72 -17 133 34 133 111 0 22 -10 41 -34 65 -40 40 -83 45 -132 15z"/>
<path d="M1098 1629 l-208 -139 0 -215 0 -215 146 -98 c80 -53 153 -101 162
-107 9 -5 38 -25 64 -42 26 -18 51 -33 57 -33 6 0 106 63 221 140 l210 140 0
215 0 215 -210 140 c-115 77 -215 140 -222 139 -7 0 -106 -63 -220 -140z"/>
<path d="M1900 1709 c-73 -51 -87 -79 -52 -98 15 -8 31 -2 73 26 83 55 99 72
90 96 -12 33 -36 28 -111 -24z"/>
<path d="M603 1713 c-19 -7 -16 -37 5 -55 9 -8 55 -36 101 -63 87 -51 112 -52
119 -9 2 15 -19 33 -93 77 -94 56 -107 61 -132 50z"/>
<path d="M839 922 c-46 -31 -118 -95 -124 -110 -7 -18 12 -42 34 -42 25 0 151
110 151 131 0 30 -32 41 -61 21z"/>
<path d="M1791 862 c-5 -10 -7 -23 -3 -29 12 -20 215 -183 228 -183 17 0 36
26 32 44 -4 21 -209 186 -230 186 -10 0 -22 -8 -27 -18z"/>
<path d="M462 698 c-75 -20 -94 -126 -32 -180 91 -82 224 33 160 138 -28 44
-70 58 -128 42z"/>
<path d="M2231 624 c-153 -45 -171 -256 -27 -331 111 -58 258 33 258 157 -1
128 -110 211 -231 174z"/>
</g>
</svg>
