<svg id="Layer_1" data-name="Layer 1" xmlns="http://www.w3.org/2000/svg" xmlns:xlink="http://www.w3.org/1999/xlink" viewBox="0 0 76.17 80.39"><defs><style>.cls-1,.cls-2{fill:none;}.cls-2{clip-rule:evenodd;}.cls-3{clip-path:url(#clip-path);}.cls-4{clip-path:url(#clip-path-2);}.cls-5{isolation:isolate;}.cls-6{clip-path:url(#clip-path-3);}.cls-7{clip-path:url(#clip-path-4);}.cls-8{fill:#d3dcf0;}.cls-9{clip-path:url(#clip-path-6);}.cls-10{fill:#9973b3;}.cls-11{clip-path:url(#clip-path-8);}.cls-12{fill:#b58dc0;}.cls-13{clip-path:url(#clip-path-10);}.cls-14{fill:#08101b;}.cls-15{clip-path:url(#clip-path-12);}.cls-16{fill:#f89626;}</style><clipPath id="clip-path"><rect class="cls-1" x="8.17" y="7.96" width="63" height="63"/></clipPath><clipPath id="clip-path-2"><rect class="cls-1" x="-303.83" y="-950.04" width="1361" height="1036"/></clipPath><clipPath id="clip-path-3"><rect class="cls-1" x="7.17" y="7.96" width="65" height="63"/></clipPath><clipPath id="clip-path-4"><path class="cls-2" d="M8.17,39.46A31.5,31.5,0,1,0,39.67,8a31.5,31.5,0,0,0-31.5,31.5"/></clipPath><clipPath id="clip-path-6"><path class="cls-2" d="M39.17,20V61s-11-2.57-14.83-11.58L19.17,26Z"/></clipPath><clipPath id="clip-path-8"><path class="cls-2" d="M39.17,20V61s11-2.57,14.83-11.58L59.17,26Z"/></clipPath><clipPath id="clip-path-10"><path class="cls-2" d="M41.42,40.72l-.42-1a3.52,3.52,0,0,0,2-3.22,3.35,3.35,0,1,0-6.7,0,3.53,3.53,0,0,0,2,3.22l-.42,1L36.17,45h7Z"/></clipPath><clipPath id="clip-path-12"><path class="cls-2" d="M58.31,33.86a6.35,6.35,0,0,0-6.56-2.78A6.1,6.1,0,0,0,46.93,36H39.2a1,1,0,0,0-1,1,1,1,0,0,0,1,1h7.73a6.13,6.13,0,0,0,4,4.65,6.31,6.31,0,0,0,6.81-1.79,6,6,0,0,0,.58-7m-3.68-.59h0m-5.7,3.15s0,.19,0,0m7.38,3h0m.81-2.07a.57.57,0,0,0,0,.13v0c0,.13,0,.26-.07.38a6.4,6.4,0,0,1-.2.62,1.72,1.72,0,0,0-.1.22l-.18.3c-.06.1-.12.2-.19.3a1,1,0,0,0-.08.11l0,0a6.47,6.47,0,0,1-.52.53l-.13.11-.08.06,0,0-.15.09a5.32,5.32,0,0,1-.66.37l-.08,0-.09,0-.35.11-.31.07-.18,0-.18,0a4.33,4.33,0,0,1-.62,0l-.38,0h0l-.21,0a5.11,5.11,0,0,1-.79-.22h0l-.18-.08-.36-.19c-.11-.06-.22-.14-.33-.21l-.07,0-.11-.08a5.94,5.94,0,0,1-.57-.55l-.06-.08-.1-.13-.2-.3-.21-.38,0-.11,0-.09a7.42,7.42,0,0,1-.22-.77l0-.18h0v0c0-.16,0-.31,0-.46s0-.25,0-.37a1.1,1.1,0,0,1,0-.18h0a5,5,0,0,1,.18-.74l.09-.24a1.39,1.39,0,0,0,.1-.21,6.65,6.65,0,0,1,.39-.63l.06-.07s0-.06,0-.07l.21-.23.25-.24.14-.11.13-.11a5.09,5.09,0,0,1,.5-.3,3.18,3.18,0,0,1,.32-.16l0,0a.64.64,0,0,0,.16-.06q.33-.11.66-.18l.18,0,.11,0h.08l.24,0a5.46,5.46,0,0,1,.7,0,2.13,2.13,0,0,0,.24,0l.36.09.35.1.14.06h0a5.25,5.25,0,0,1,.66.36,1.53,1.53,0,0,1,.21.14l.19.14a5.19,5.19,0,0,1,.52.53l.06.07.06.07.19.29c0,.09.11.18.15.27l.09.15a.59.59,0,0,0,.07.16A5.22,5.22,0,0,1,57,36c0,.11,0,.23.07.35a.51.51,0,0,0,0,.09,1.38,1.38,0,0,0,0,.14,4.57,4.57,0,0,1,0,.74"/></clipPath></defs><g class="cls-3"><g class="cls-4"><g class="cls-5"><g class="cls-6"><g class="cls-7"><g class="cls-3"><rect class="cls-8" x="3.17" y="2.96" width="73" height="73"/></g></g></g></g></g></g><g class="cls-9"><g class="cls-4"><rect class="cls-10" x="14.17" y="14.96" width="30" height="51"/></g></g><g class="cls-11"><g class="cls-4"><rect class="cls-12" x="34.17" y="14.96" width="30" height="51"/></g></g><g class="cls-13"><g class="cls-4"><rect class="cls-14" x="31.17" y="27.96" width="17" height="22"/></g></g><g class="cls-15"><g class="cls-4"><rect class="cls-16" x="33.17" y="25.96" width="31" height="22"/></g></g></svg>