<svg xmlns="http://www.w3.org/2000/svg" viewBox="0 0 37 42.25"><defs><style>.cls-1{fill:#29b473;}.cls-2{fill:#fff;}</style></defs><title>NexusRepo_Icon_white+color</title><g id="Product_Logos_Vertical_White_Color" data-name="Product Logos Vertical White + Color"><path class="cls-1" d="M19.13,27V19.56a3.77,3.77,0,0,1,2.77-1.28,3.52,3.52,0,0,1,.81.07V15.46a4.91,4.91,0,0,0-3.58,1.79V15.74h-3V27Z"/><polygon class="cls-2" points="0 10.18 0 31.56 18.5 42.25 37 31.56 37 11.3 32.46 13.92 32.46 28.94 18.5 37 4.54 28.94 4.54 12.81 17.63 5.25 17.63 0 0 10.18"/><polygon class="cls-1" points="19.44 0 19.44 5.25 31.73 12.35 36.27 9.73 19.44 0"/></g></svg>