<?xml version="1.0" encoding="UTF-8"?>
<svg id="Layer_1" data-name="Layer 1" xmlns="http://www.w3.org/2000/svg" viewBox="0 0 213 45">
  <defs>
    <style>
      .cls-1 {
        fill: #05b96c;
      }

      .cls-2 {
        fill: #05bb6d;
      }

      .cls-3 {
        fill: #1c1f2a;
      }

      .cls-4 {
        fill: #1b1f2b;
      }
    </style>
  </defs>
  <g>
    <g id="Sonatype_Logo_Favicon" data-name="Sonatype Logo Favicon">
      <polygon class="cls-2" points="36.74 18.81 36.74 23.33 25.92 29.54 23.18 31.12 23.17 31.12 19.24 33.37 15.29 31.11 12.55 29.53 1.74 23.33 1.74 18.82 5.78 21.14 5.78 21.17 16.46 27.28 19.22 28.86 19.24 28.87 19.26 28.86 22.01 27.29 32.69 21.17 32.69 21.13 36.74 18.81"/>
    </g>
    <g id="Sonatype_Logo_Favicon-2" data-name="Sonatype Logo Favicon">
      <polygon class="cls-3" points="36.74 26.09 36.74 30.61 25.92 36.82 23.18 38.4 23.17 38.4 19.24 40.65 15.29 38.39 12.55 36.81 1.74 30.61 1.74 26.1 5.78 28.42 5.78 28.45 16.46 34.56 19.22 36.15 19.24 36.16 19.26 36.15 22.01 34.57 32.69 28.45 32.69 28.41 36.74 26.09"/>
    </g>
    <g id="Sonatype_Logo_Favicon-3" data-name="Sonatype Logo Favicon">
      <path class="cls-3" d="m32.69,6.81v7.08l-10.68,6.12-2.75,1.58h-.02s-.02,0-.02,0l-2.76-1.59-10.67-6.11v-7.08H1.74v9.24l10.8,6.2,2.75,1.58,3.94,2.26,3.93-2.25,2.75-1.57,10.82-6.21V6.81h-4.05Z"/>
    </g>
    <path class="cls-1" d="m19.88,15.14v-7.41c.49-.72,1.8-1.28,2.78-1.28.35,0,.61.02.82.07v-2.88c-1.4,0-2.78.81-3.6,1.79v-1.51h-2.96v11.21h2.96Z"/>
  </g>
  <g>
    <path class="cls-4" d="m47.22,14.2l1.1-1.72c.78.8,2.32,1.54,3.75,1.54s2.21-.6,2.21-1.47c0-2.18-6.71-.62-6.71-4.9,0-1.82,1.56-3.36,4.37-3.36,1.88,0,3.31.67,4.3,1.54l-1.01,1.7c-.67-.74-1.88-1.33-3.29-1.33-1.27,0-2.05.6-2.05,1.38,0,1.95,6.71.48,6.71,4.9,0,1.98-1.63,3.47-4.62,3.47-1.91,0-3.61-.62-4.76-1.75Z"/>
    <path class="cls-4" d="m57.43,10.11c0-3.2,2.16-5.82,5.7-5.82s5.7,2.62,5.7,5.82-2.16,5.84-5.7,5.84-5.7-2.67-5.7-5.84Zm8.9,0c0-1.96-1.13-3.68-3.2-3.68s-3.2,1.72-3.2,3.68,1.15,3.7,3.2,3.7,3.2-1.72,3.2-3.7Z"/>
    <path class="cls-4" d="m78.13,15.67v-6.94c0-1.75-.9-2.3-2.25-2.3-1.22,0-2.28.74-2.85,1.47v7.77h-2.41V4.56h2.41v1.49c.74-.87,2.19-1.77,3.93-1.77,2.39,0,3.59,1.29,3.59,3.56v7.82h-2.41Z"/>
    <path class="cls-4" d="m89.91,15.67v-1.22c-.83.97-2.14,1.5-3.61,1.5-1.79,0-3.84-1.24-3.84-3.68,0-2.58,2.02-3.63,3.84-3.63,1.52,0,2.78.48,3.61,1.43v-1.66c0-1.29-1.08-2.07-2.6-2.07-1.24,0-2.35.46-3.29,1.43l-1.01-1.68c1.29-1.24,2.9-1.79,4.67-1.79,2.48,0,4.64,1.04,4.64,4v7.38h-2.41Zm0-2.53v-1.7c-.57-.76-1.61-1.15-2.64-1.15-1.36,0-2.39.8-2.39,2s1.04,2,2.39,2c1.04,0,2.07-.39,2.64-1.15Z"/>
    <path class="cls-4" d="m95.73,13.07v-6.42h-1.84v-2.09h1.84V1.53h2.41v3.04h2.25v2.09h-2.25v5.82c0,.76.37,1.33,1.06,1.33.46,0,.87-.21,1.06-.41l.58,1.84c-.44.39-1.15.71-2.25.71-1.89,0-2.85-1.01-2.85-2.88Z"/>
    <path class="cls-4" d="m102.79,17.86c.25.12.64.18.92.18.78,0,1.29-.23,1.61-.97l.55-1.26-4.58-11.24h2.6l3.24,8.32,3.24-8.32h2.58l-5.36,13.11c-.76,1.88-2.07,2.48-3.79,2.51-.35,0-1.04-.07-1.36-.16l.35-2.16Z"/>
    <path class="cls-4" d="m116.61,14.13v5.77h-2.41V4.56h2.41v1.52c.83-1.1,2.12-1.79,3.56-1.79,2.88,0,4.92,2.16,4.92,5.82s-2.04,5.84-4.92,5.84c-1.4,0-2.64-.64-3.56-1.82Zm6-4.02c0-2.16-1.24-3.68-3.15-3.68-1.13,0-2.3.64-2.85,1.47v4.39c.53.83,1.72,1.52,2.85,1.52,1.91,0,3.15-1.54,3.15-3.7Z"/>
    <path class="cls-4" d="m126.41,10.11c0-3.22,2.35-5.82,5.63-5.82s5.45,2.53,5.45,6.03v.6h-8.55c.18,1.66,1.43,3.06,3.52,3.06,1.1,0,2.37-.44,3.17-1.24l1.1,1.59c-1.13,1.06-2.76,1.63-4.51,1.63-3.36,0-5.82-2.32-5.82-5.84Zm5.61-3.84c-2.05,0-3.01,1.59-3.11,2.92h6.26c-.07-1.31-.97-2.92-3.15-2.92Z"/>
    <path class="cls-2" d="m55.55,39.67v-6.71c0-1.54-.8-2.07-2.05-2.07-1.15,0-2.02.64-2.53,1.29v7.5h-2.92v-11.11h2.92v1.43c.71-.83,2.09-1.7,3.89-1.7,2.46,0,3.63,1.38,3.63,3.54v7.84h-2.94Z"/>
    <path class="cls-2" d="m59.62,34.11c0-3.22,2.39-5.82,5.75-5.82s5.56,2.48,5.56,6.09v.69h-8.26c.21,1.36,1.31,2.48,3.2,2.48.94,0,2.23-.39,2.94-1.08l1.31,1.93c-1.1,1.01-2.85,1.54-4.58,1.54-3.38,0-5.93-2.28-5.93-5.84Zm5.75-3.43c-1.82,0-2.6,1.26-2.71,2.37h5.47c-.09-1.06-.83-2.37-2.76-2.37Z"/>
    <path class="cls-2" d="m78.98,39.67l-2.53-3.75-2.55,3.75h-3.24l3.96-5.7-3.73-5.4h3.27l2.3,3.4,2.28-3.4h3.27l-3.7,5.4,3.96,5.7h-3.27Z"/>
    <path class="cls-2" d="m90.62,39.67v-1.4c-.76.83-2.09,1.68-3.91,1.68-2.44,0-3.59-1.33-3.59-3.5v-7.89h2.92v6.74c0,1.54.8,2.05,2.05,2.05,1.13,0,2.02-.62,2.53-1.26v-7.52h2.92v11.11h-2.92Z"/>
    <path class="cls-2" d="m94.9,38.22l1.27-2.12c.83.78,2.46,1.54,3.84,1.54,1.27,0,1.86-.48,1.86-1.17,0-1.82-6.58-.32-6.58-4.69,0-1.86,1.61-3.5,4.55-3.5,1.86,0,3.36.64,4.46,1.52l-1.17,2.07c-.67-.69-1.93-1.29-3.29-1.29-1.06,0-1.75.46-1.75,1.08,0,1.63,6.6.25,6.6,4.74,0,2.05-1.75,3.54-4.83,3.54-1.93,0-3.79-.64-4.97-1.72Z"/>
    <path class="cls-2" d="m111.62,39.67v-11.11h2.92v1.49c.8-.97,2.16-1.77,3.54-1.77v2.85c-.21-.05-.46-.07-.8-.07-.97,0-2.25.55-2.74,1.27v7.33h-2.92Z"/>
    <path class="cls-2" d="m118.61,34.11c0-3.22,2.39-5.82,5.75-5.82s5.56,2.48,5.56,6.09v.69h-8.26c.21,1.36,1.31,2.48,3.2,2.48.94,0,2.23-.39,2.94-1.08l1.31,1.93c-1.1,1.01-2.85,1.54-4.58,1.54-3.38,0-5.93-2.28-5.93-5.84Zm5.75-3.43c-1.82,0-2.6,1.26-2.71,2.37h5.47c-.09-1.06-.83-2.37-2.76-2.37Z"/>
    <path class="cls-2" d="m134.28,38.25v5.66h-2.92v-15.34h2.92v1.4c.85-1.08,2.07-1.68,3.43-1.68,2.85,0,4.92,2.12,4.92,5.82s-2.07,5.84-4.92,5.84c-1.31,0-2.51-.55-3.43-1.7Zm5.34-4.14c0-1.91-1.15-3.22-2.83-3.22-.94,0-2,.53-2.51,1.26v3.91c.48.71,1.56,1.29,2.51,1.29,1.68,0,2.83-1.31,2.83-3.24Z"/>
    <path class="cls-2" d="m143.59,34.11c0-3.15,2.21-5.82,5.86-5.82s5.89,2.67,5.89,5.82-2.21,5.84-5.89,5.84-5.86-2.69-5.86-5.84Zm8.71,0c0-1.72-1.01-3.22-2.85-3.22s-2.83,1.5-2.83,3.22,1.01,3.24,2.83,3.24,2.85-1.5,2.85-3.24Z"/>
    <path class="cls-2" d="m155.99,38.22l1.27-2.12c.83.78,2.46,1.54,3.84,1.54,1.26,0,1.86-.48,1.86-1.17,0-1.82-6.58-.32-6.58-4.69,0-1.86,1.61-3.5,4.55-3.5,1.86,0,3.36.64,4.46,1.52l-1.17,2.07c-.67-.69-1.93-1.29-3.29-1.29-1.06,0-1.75.46-1.75,1.08,0,1.63,6.6.25,6.6,4.74,0,2.05-1.75,3.54-4.83,3.54-1.93,0-3.79-.64-4.97-1.72Z"/>
    <path class="cls-2" d="m167.07,25.62c0-.97.78-1.72,1.72-1.72s1.75.76,1.75,1.72-.78,1.75-1.75,1.75-1.72-.78-1.72-1.75Zm.28,14.05v-11.11h2.92v11.11h-2.92Z"/>
    <path class="cls-2" d="m173.65,36.89v-5.77h-1.84v-2.55h1.84v-3.04h2.92v3.04h2.25v2.55h-2.25v4.99c0,.71.37,1.24,1.01,1.24.44,0,.85-.16,1.01-.34l.62,2.23c-.44.39-1.22.71-2.44.71-2.05,0-3.13-1.06-3.13-3.06Z"/>
    <path class="cls-2" d="m179.08,34.11c0-3.15,2.21-5.82,5.86-5.82s5.89,2.67,5.89,5.82-2.21,5.84-5.89,5.84-5.86-2.69-5.86-5.84Zm8.71,0c0-1.72-1.01-3.22-2.85-3.22s-2.83,1.5-2.83,3.22,1.01,3.24,2.83,3.24,2.85-1.5,2.85-3.24Z"/>
    <path class="cls-2" d="m191.98,39.67v-11.11h2.92v1.49c.8-.97,2.16-1.77,3.54-1.77v2.85c-.21-.05-.46-.07-.8-.07-.96,0-2.25.55-2.74,1.27v7.33h-2.92Z"/>
    <path class="cls-2" d="m200.95,41.4c.25.12.64.18.92.18.76,0,1.27-.21,1.54-.8l.41-.97-4.51-11.24h3.13l2.9,7.73,2.92-7.73h3.13l-5.22,12.92c-.83,2.09-2.3,2.64-4.21,2.69-.32,0-1.08-.07-1.43-.18l.41-2.6Z"/>
  </g>
</svg>