<svg width="240" height="24" viewBox="0 0 240 24" fill="none" xmlns="http://www.w3.org/2000/svg">
<g clip-path="url(#clip0_1535_64987)">
<path d="M10.9204 21.0193L4.74561 17.458V20.067L10.9204 23.6128L17.0951 20.067V17.458L10.9204 21.0193Z" fill="#1C1F2A"/>
<path d="M18.6797 4.8457V19.1528L21.0176 17.8057V6.1928L18.6797 4.8457Z" fill="#B41AC6"/>
<path d="M4.74561 3.93253V6.71188L10.9204 3.15833L17.0951 6.71188V3.93253L10.9204 0.386719L4.74561 3.93253Z" fill="#1C1F2A"/>
<path d="M0.823242 6.19287V17.8058L3.16111 19.1451V4.85352L0.823242 6.19287Z" fill="#B41AC6"/>
<path d="M11.627 16.4202V11.4964H12.9319V10.0254H11.627V9.76217C11.627 9.14282 11.9454 8.83314 12.427 8.83314C12.7299 8.83314 12.9552 8.92605 13.1338 9.08863L13.7707 8.06669C13.3823 7.63314 12.7221 7.45508 12.1008 7.45508C10.8115 7.45508 9.94933 8.31443 9.94933 9.76217V10.0254H8.88525V11.4964H9.94933V16.4202H11.6348H11.627Z" fill="#B21BC4"/>
<path d="M27.2231 15.2201L28.0775 13.8885C28.6833 14.5079 29.8795 15.0808 30.9901 15.0808C32.1008 15.0808 32.7066 14.6162 32.7066 13.9427C32.7066 12.2549 27.495 13.4627 27.495 10.1491C27.495 8.74011 28.7066 7.54785 30.8892 7.54785C32.3571 7.54785 33.46 8.06656 34.229 8.74011L33.4445 10.0562C32.9241 9.48334 31.9765 9.02656 30.8892 9.02656C29.9105 9.02656 29.2969 9.49108 29.2969 10.0949C29.2969 11.6046 34.5086 10.4666 34.5086 13.8885C34.5086 15.4214 33.2426 16.5749 30.9202 16.5749C29.4367 16.5749 28.1163 16.0949 27.2231 15.2201Z" fill="#1B1F2B"/>
<path d="M35.1533 12.0537C35.1533 9.57624 36.831 7.54785 39.5805 7.54785C42.33 7.54785 44.0077 9.57624 44.0077 12.0537C44.0077 14.5311 42.33 16.5749 39.5805 16.5749C36.831 16.5749 35.1533 14.5079 35.1533 12.0537ZM42.0659 12.0537C42.0659 10.5362 41.1883 9.20463 39.5805 9.20463C37.9727 9.20463 37.0951 10.5362 37.0951 12.0537C37.0951 13.5711 37.9883 14.9182 39.5805 14.9182C41.1727 14.9182 42.0659 13.5866 42.0659 12.0537Z" fill="#1B1F2B"/>
<path d="M51.2309 16.3581V10.9852C51.2309 9.63036 50.5319 9.20456 49.4833 9.20456C48.5358 9.20456 47.7125 9.77746 47.2697 10.3426V16.3581H45.3901V7.75681H47.2697V8.91036C47.8445 8.23681 48.963 7.54004 50.3222 7.54004C52.1785 7.54004 53.1105 8.53875 53.1105 10.2962V16.3504H51.2387L51.2309 16.3581Z" fill="#1B1F2B"/>
<path d="M60.3728 16.3582V15.4137C59.7282 16.1647 58.7107 16.575 57.569 16.575C56.1787 16.575 54.5864 15.615 54.5864 13.726C54.5864 11.7286 56.1554 10.9157 57.569 10.9157C58.7495 10.9157 59.7282 11.2873 60.3728 12.0228V10.7376C60.3728 9.73889 59.534 9.13502 58.3534 9.13502C57.3903 9.13502 56.5282 9.49115 55.7981 10.2421L55.0136 8.94147C56.0156 7.98147 57.266 7.55566 58.6408 7.55566C60.567 7.55566 62.2447 8.36083 62.2447 10.6524V16.366H60.3728V16.3582ZM60.3728 14.3995V13.0834C59.9224 12.495 59.1223 12.1931 58.3223 12.1931C57.266 12.1931 56.466 12.8124 56.466 13.7415C56.466 14.6705 57.2738 15.2899 58.3223 15.2899C59.1301 15.2899 59.9301 14.9879 60.3728 14.3995Z" fill="#1B1F2B"/>
<path d="M64.893 14.3531V9.38275H63.4639V7.76468H64.893V5.41113H66.7726V7.76468H68.5202V9.38275H66.7726V13.8886C66.7726 14.4769 67.06 14.9182 67.5959 14.9182C67.9532 14.9182 68.2716 14.7556 68.4192 14.6008L68.8697 16.0253C68.5279 16.3273 67.9765 16.575 67.1221 16.575C65.6542 16.575 64.9085 15.7931 64.9085 14.3453L64.893 14.3531Z" fill="#1B1F2B"/>
<path d="M70.3765 18.0537C70.5706 18.1466 70.8736 18.193 71.091 18.193C71.6969 18.193 72.093 18.015 72.3415 17.4421L72.7687 16.4666L69.2114 7.76465H71.2308L73.7473 14.2059L76.2639 7.76465H78.2677L74.1046 17.9143C73.5143 19.3698 72.4969 19.8343 71.1609 19.8576C70.8891 19.8576 70.3532 19.8034 70.1046 19.7337L70.3687 18.0614L70.3765 18.0537Z" fill="#1B1F2B"/>
<path d="M81.1184 15.1659V19.633H79.2388V7.75688H81.1184V8.93366C81.763 8.08205 82.765 7.54785 83.8834 7.54785C86.1203 7.54785 87.7048 9.22011 87.7048 12.0537C87.7048 14.8872 86.1126 16.5749 83.8834 16.5749C82.7961 16.5749 81.8329 16.0795 81.1184 15.1659ZM85.7786 12.0537C85.7786 10.3814 84.8155 9.20463 83.332 9.20463C82.4543 9.20463 81.5456 9.70011 81.1184 10.3427V13.7414C81.53 14.384 82.4543 14.9182 83.332 14.9182C84.8155 14.9182 85.7786 13.7259 85.7786 12.0537Z" fill="#1B1F2B"/>
<path d="M88.7299 12.0537C88.7299 9.56075 90.5552 7.54785 93.1028 7.54785C95.6503 7.54785 97.3358 9.50656 97.3358 12.2162V12.6808H90.695C90.8348 13.9659 91.8057 15.0498 93.429 15.0498C94.2833 15.0498 95.2697 14.7091 95.8911 14.0898L96.7455 15.3208C95.8678 16.1414 94.6018 16.5827 93.2426 16.5827C90.6328 16.5827 88.7222 14.7866 88.7222 12.0614L88.7299 12.0537ZM93.0872 9.08075C91.495 9.08075 90.7494 10.3117 90.6794 11.3414H95.5338C95.4794 10.3272 94.7804 9.08075 93.0872 9.08075Z" fill="#1B1F2B"/>
<path d="M102.998 16.3581V7.75681H105.266V8.91036C105.887 8.15939 106.944 7.54004 108.016 7.54004V9.74649C107.852 9.70778 107.658 9.6923 107.394 9.6923C106.641 9.6923 105.647 10.1181 105.266 10.6755V16.3504H102.998V16.3581Z" fill="#B41AC6"/>
<path d="M108.427 12.0537C108.427 9.56075 110.284 7.54785 112.893 7.54785C115.503 7.54785 117.219 9.46785 117.219 12.2627V12.7969H110.804C110.967 13.8498 111.821 14.7169 113.289 14.7169C114.019 14.7169 115.021 14.4149 115.573 13.8808L116.59 15.3749C115.736 16.1569 114.377 16.5672 113.033 16.5672C110.408 16.5672 108.427 14.802 108.427 12.0459V12.0537ZM112.893 9.39817C111.48 9.39817 110.874 10.3737 110.788 11.233H115.037C114.967 10.4124 114.392 9.39817 112.893 9.39817Z" fill="#B41AC6"/>
<path d="M120.598 15.2588V19.6408H118.33V7.76463H120.598V8.8485C121.258 8.01237 122.206 7.54785 123.262 7.54785C125.476 7.54785 127.083 9.18914 127.083 12.0537C127.083 14.9182 125.476 16.5749 123.262 16.5749C122.245 16.5749 121.313 16.1491 120.598 15.2588ZM124.738 12.0537C124.738 10.5749 123.845 9.56076 122.54 9.56076C121.81 9.56076 120.986 9.97108 120.59 10.5362V13.5633C120.963 14.113 121.802 14.562 122.54 14.562C123.845 14.562 124.738 13.5479 124.738 12.0537Z" fill="#B41AC6"/>
<path d="M127.829 12.0537C127.829 9.61495 129.546 7.54785 132.381 7.54785C135.216 7.54785 136.955 9.61495 136.955 12.0537C136.955 14.4924 135.239 16.5749 132.381 16.5749C129.522 16.5749 127.829 14.4924 127.829 12.0537ZM134.602 12.0537C134.602 10.722 133.817 9.56076 132.388 9.56076C130.959 9.56076 130.19 10.722 130.19 12.0537C130.19 13.3853 130.975 14.562 132.388 14.562C133.802 14.562 134.602 13.4008 134.602 12.0537Z" fill="#B41AC6"/>
<path d="M137.46 15.2433L138.446 13.602C139.091 14.2059 140.357 14.7943 141.429 14.7943C142.407 14.7943 142.874 14.4227 142.874 13.8885C142.874 12.4795 137.763 13.6408 137.763 10.2575C137.763 8.81753 139.013 7.54785 141.297 7.54785C142.741 7.54785 143.907 8.04334 144.761 8.72463L143.852 10.3272C143.332 9.79301 142.353 9.3285 141.297 9.3285C140.474 9.3285 139.938 9.68463 139.938 10.1646C139.938 11.4266 145.064 10.3582 145.064 13.8343C145.064 15.4214 143.705 16.5749 141.312 16.5749C139.813 16.5749 138.369 16.0795 137.452 15.2433H137.46Z" fill="#B41AC6"/>
<path d="M146.066 5.48103C146.066 4.73006 146.672 4.14941 147.402 4.14941C148.132 4.14941 148.761 4.7378 148.761 5.48103C148.761 6.22425 148.155 6.83587 147.402 6.83587C146.648 6.83587 146.066 6.23199 146.066 5.48103ZM146.283 16.3584V7.75716H148.551V16.3584H146.283Z" fill="#B41AC6"/>
<path d="M151.177 14.206V9.73887H149.748V7.76468H151.177V5.41113H153.445V7.76468H155.192V9.73887H153.445V13.6021C153.445 14.1518 153.732 14.5621 154.229 14.5621C154.571 14.5621 154.889 14.4382 155.014 14.2989L155.495 16.0253C155.153 16.3273 154.548 16.575 153.6 16.575C152.008 16.575 151.169 15.7544 151.169 14.206H151.177Z" fill="#B41AC6"/>
<path d="M155.394 12.0537C155.394 9.61495 157.111 7.54785 159.945 7.54785C162.78 7.54785 164.52 9.61495 164.52 12.0537C164.52 14.4924 162.804 16.5749 159.945 16.5749C157.087 16.5749 155.394 14.4924 155.394 12.0537ZM162.159 12.0537C162.159 10.722 161.375 9.56076 159.945 9.56076C158.516 9.56076 157.747 10.722 157.747 12.0537C157.747 13.3853 158.532 14.562 159.945 14.562C161.359 14.562 162.159 13.4008 162.159 12.0537Z" fill="#B41AC6"/>
<path d="M165.414 16.3581V7.75681H167.682V8.91036C168.303 8.15939 169.359 7.54004 170.431 7.54004V9.74649C170.268 9.70778 170.074 9.6923 169.81 9.6923C169.056 9.6923 168.062 10.1181 167.682 10.6755V16.3504H165.414V16.3581Z" fill="#B41AC6"/>
<path d="M172.38 17.6976C172.574 17.7905 172.877 17.8369 173.095 17.8369C173.685 17.8369 174.081 17.6743 174.291 17.2176L174.609 16.4666L171.106 7.76465H173.538L175.79 13.7492L178.058 7.76465H180.489L176.435 17.7672C175.79 19.3853 174.648 19.8111 173.165 19.8498C172.916 19.8498 172.326 19.7956 172.054 19.7105L172.372 17.6976H172.38Z" fill="#B41AC6"/>
<path d="M185.46 16.3584V9.73909H184.031V7.7649H185.46V7.40877C185.46 5.39587 186.695 4.31199 188.357 4.31199C189.017 4.31199 189.592 4.45135 190.004 4.66812L189.538 6.34038C189.359 6.21651 189.11 6.16232 188.807 6.16232C188.163 6.16232 187.736 6.57264 187.736 7.40877V7.7649H189.483V9.73909H187.736V16.3584H185.468H185.46ZM190.571 5.48103C190.571 4.73006 191.176 4.14941 191.906 4.14941C192.637 4.14941 193.266 4.7378 193.266 5.48103C193.266 6.22425 192.66 6.83587 191.906 6.83587C191.153 6.83587 190.571 6.23199 190.571 5.48103ZM190.788 16.3584V7.75716H193.056V16.3584H190.788Z" fill="#B41AC6"/>
<path d="M194.858 16.3581V7.75681H197.126V8.91036C197.747 8.15939 198.804 7.54004 199.875 7.54004V9.74649C199.712 9.70778 199.518 9.6923 199.254 9.6923C198.501 9.6923 197.506 10.1181 197.126 10.6755V16.3504H194.858V16.3581Z" fill="#B41AC6"/>
<path d="M200.194 12.0537C200.194 9.56075 202.05 7.54785 204.66 7.54785C207.27 7.54785 208.986 9.46785 208.986 12.2627V12.7969H202.571C202.734 13.8498 203.588 14.7169 205.056 14.7169C205.786 14.7169 206.788 14.4149 207.339 13.8808L208.357 15.3749C207.503 16.1569 206.143 16.5672 204.8 16.5672C202.174 16.5672 200.194 14.802 200.194 12.0459V12.0537ZM204.66 9.39817C203.246 9.39817 202.64 10.3737 202.555 11.233H206.804C206.734 10.4124 206.159 9.39817 204.66 9.39817Z" fill="#B41AC6"/>
<path d="M217.841 16.3581L216.023 10.4975L214.198 16.3581H211.767L209.142 7.75684H211.503L213.111 13.5401L215.006 7.75684H217.025L218.92 13.5401L220.528 7.75684H222.905L220.279 16.3581H217.848H217.841Z" fill="#B41AC6"/>
<path d="M228.761 16.3582V15.4524C228.171 16.1646 227.153 16.5749 226.027 16.5749C224.652 16.5749 223.044 15.6459 223.044 13.7259C223.044 11.6975 224.652 10.9466 226.027 10.9466C227.192 10.9466 228.186 11.3182 228.761 11.9995V10.9156C228.761 10.0408 228.008 9.47559 226.866 9.47559C225.957 9.47559 225.095 9.83172 224.38 10.4898L223.487 8.90269C224.543 7.95817 225.895 7.54785 227.254 7.54785C229.235 7.54785 231.044 8.32979 231.044 10.8072V16.3582H228.761ZM228.761 14.2911V13.2227C228.388 12.7272 227.674 12.4562 226.936 12.4562C226.042 12.4562 225.312 12.9362 225.312 13.7569C225.312 14.5775 226.042 15.042 226.936 15.042C227.666 15.042 228.38 14.7943 228.761 14.2911Z" fill="#B41AC6"/>
<path d="M232.831 16.3586V4.49023H235.099V16.3664H232.831V16.3586Z" fill="#B41AC6"/>
<path d="M236.909 16.3586V4.49023H239.177V16.3664H236.909V16.3586Z" fill="#B41AC6"/>
</g>
<defs>
<clipPath id="clip0_1535_64987">
<rect width="240" height="24" fill="white"/>
</clipPath>
</defs>
</svg>
