<svg width="386" height="41" viewBox="0 0 386 41" fill="none" xmlns="http://www.w3.org/2000/svg">
<path d="M35.1281 16.8594V21.3054L24.6761 27.4154L22.0241 28.9624H22.0111L18.2151 31.1854L14.4061 28.9624L11.7541 27.4024L1.32812 21.3054V16.8724L5.22812 19.1474V19.1864L15.5371 25.1924L18.2021 26.7524L18.2151 26.7654L18.2411 26.7524L20.8931 25.2054L31.2151 19.1864V19.1474L35.1281 16.8594Z" fill="#05BB6D"/>
<path d="M35.1281 24.0215V28.4675L24.6761 34.5775L22.0241 36.1245H22.0111L18.2151 38.3475L14.4061 36.1245L11.7541 34.5775L1.32812 28.4675V24.0345L5.22812 26.3095V26.3485L15.5371 32.3545L18.2021 33.9145L18.2151 33.9275L18.2411 33.9145L20.8931 32.3675L31.2151 26.3485V26.3095L35.1281 24.0215Z" fill="#1C1F2A"/>
<path d="M31.2151 5.05664V12.0116L20.8931 18.0306L18.2411 19.5776H18.2281H18.2151L15.5501 18.0176L5.24112 12.0116V5.05664H1.32812V14.1436L11.7671 20.2406L14.4191 21.7876L18.2281 24.0106L22.0241 21.7876L24.6761 20.2406L35.1281 14.1306V5.05664H31.2151Z" fill="#1C1F2A"/>
<path d="M18.8391 13.2573V5.96427C19.3071 5.26227 20.5811 4.70327 21.5171 4.70327C21.8551 4.70327 22.1021 4.72927 22.3101 4.76827V1.94727C20.9581 1.94727 19.6321 2.74027 18.8391 3.70227V2.22027H15.9791V13.2573H18.8391Z" fill="#05B96C"/>
<path d="M45.5021 25.5568L46.9321 23.3208C47.9461 24.3608 49.9481 25.3228 51.8071 25.3228C53.6661 25.3228 54.6801 24.5428 54.6801 23.4118C54.6801 20.5778 45.9571 22.6058 45.9571 17.0418C45.9571 14.6758 47.9851 12.6738 51.6381 12.6738C54.0951 12.6738 55.9411 13.5448 57.2281 14.6758L55.9151 16.8858C55.0441 15.9238 53.4581 15.1568 51.6381 15.1568C50.0001 15.1568 48.9731 15.9368 48.9731 16.9508C48.9731 19.4858 57.6961 17.5748 57.6961 23.3208C57.6961 25.8948 55.5771 27.8318 51.6901 27.8318C49.2071 27.8318 46.9971 27.0258 45.5021 25.5568Z" fill="#1B1F2B"/>
<path d="M58.7751 20.2398C58.7751 16.0798 61.5831 12.6738 66.1851 12.6738C70.7871 12.6738 73.5951 16.0798 73.5951 20.2398C73.5951 24.3998 70.7871 27.8318 66.1851 27.8318C61.5831 27.8318 58.7751 24.3608 58.7751 20.2398ZM70.3451 20.2398C70.3451 17.6918 68.8761 15.4558 66.1851 15.4558C63.4941 15.4558 62.0251 17.6918 62.0251 20.2398C62.0251 22.7878 63.5201 25.0498 66.1851 25.0498C68.8501 25.0498 70.3451 22.8138 70.3451 20.2398Z" fill="#1B1F2B"/>
<path d="M85.6851 27.4691V18.4471C85.6851 16.1721 84.5151 15.4571 82.7601 15.4571C81.1741 15.4571 79.7961 16.4191 79.0551 17.3681V27.4691H75.9091V13.0261H79.0551V14.9631C80.0171 13.8321 81.8891 12.6621 84.1641 12.6621C87.2711 12.6621 88.8311 14.3391 88.8311 17.2901V27.4561H85.6981L85.6851 27.4691Z" fill="#1B1F2B"/>
<path d="M100.986 27.4685V25.8825C99.9071 27.1435 98.2041 27.8325 96.2931 27.8325C93.9661 27.8325 91.3011 26.2205 91.3011 23.0485C91.3011 19.6945 93.9271 18.3295 96.2931 18.3295C98.2691 18.3295 99.9071 18.9535 100.986 20.1885V18.0305C100.986 16.3535 99.5821 15.3395 97.6061 15.3395C95.9941 15.3395 94.5511 15.9375 93.3291 17.1985L92.0161 15.0145C93.6931 13.4025 95.7861 12.6875 98.0871 12.6875C101.311 12.6875 104.119 14.0395 104.119 17.8875V27.4815H100.986V27.4685ZM100.986 24.1795V21.9695C100.232 20.9815 98.8931 20.4745 97.5541 20.4745C95.7861 20.4745 94.4471 21.5145 94.4471 23.0745C94.4471 24.6345 95.7991 25.6745 97.5541 25.6745C98.9061 25.6745 100.245 25.1675 100.986 24.1795Z" fill="#1B1F2B"/>
<path d="M108.552 24.1029V15.7569H106.16V13.0399H108.552V9.08789H111.698V13.0399H114.623V15.7569H111.698V23.3229C111.698 24.3109 112.179 25.0519 113.076 25.0519C113.674 25.0519 114.207 24.7789 114.454 24.5189L115.208 26.9109C114.636 27.4179 113.713 27.8339 112.283 27.8339C109.826 27.8339 108.578 26.5209 108.578 24.0899L108.552 24.1029Z" fill="#1B1F2B"/>
<path d="M117.73 30.3141C118.055 30.4701 118.562 30.5481 118.926 30.5481C119.94 30.5481 120.603 30.2491 121.019 29.2871L121.734 27.6491L115.78 13.0371H119.16L123.372 23.8531L127.584 13.0371H130.938L123.97 30.0801C122.982 32.5241 121.279 33.3041 119.043 33.3431C118.588 33.3431 117.691 33.2521 117.275 33.1351L117.717 30.3271L117.73 30.3141Z" fill="#1B1F2B"/>
<path d="M135.709 25.4658V32.9668H132.563V13.0248H135.709V15.0008C136.788 13.5708 138.465 12.6738 140.337 12.6738C144.081 12.6738 146.733 15.4818 146.733 20.2398C146.733 24.9978 144.068 27.8318 140.337 27.8318C138.517 27.8318 136.905 26.9998 135.709 25.4658ZM143.509 20.2398C143.509 17.4318 141.897 15.4558 139.414 15.4558C137.945 15.4558 136.424 16.2878 135.709 17.3668V23.0738C136.398 24.1528 137.945 25.0498 139.414 25.0498C141.897 25.0498 143.509 23.0478 143.509 20.2398Z" fill="#1B1F2B"/>
<path d="M148.436 20.2398C148.436 16.0538 151.491 12.6738 155.755 12.6738C160.019 12.6738 162.84 15.9628 162.84 20.5128V21.2928H151.725C151.959 23.4508 153.584 25.2708 156.301 25.2708C157.731 25.2708 159.382 24.6988 160.422 23.6588L161.852 25.7258C160.383 27.1038 158.264 27.8448 155.989 27.8448C151.621 27.8448 148.423 24.8288 148.423 20.2528L148.436 20.2398ZM155.729 15.2478C153.064 15.2478 151.816 17.3148 151.699 19.0438H159.824C159.733 17.3408 158.563 15.2478 155.729 15.2478Z" fill="#1B1F2B"/>
<path d="M182.08 27.4685V18.7455C182.08 16.7435 181.04 16.0545 179.415 16.0545C177.92 16.0545 176.789 16.8865 176.126 17.7315V27.4815H172.33V13.0385H176.126V14.8975C177.049 13.8185 178.843 12.6875 181.183 12.6875C184.381 12.6875 185.902 14.4815 185.902 17.2895V27.4815H182.08V27.4685Z" fill="#05BB6D"/>
<path d="M187.371 20.2398C187.371 16.0538 190.478 12.6738 194.846 12.6738C199.214 12.6738 202.087 15.8978 202.087 20.5908V21.4878H191.349C191.622 23.2558 193.052 24.7118 195.509 24.7118C196.731 24.7118 198.408 24.2048 199.331 23.3078L201.034 25.8168C199.604 27.1298 197.329 27.8188 195.08 27.8188C190.686 27.8188 187.371 24.8548 187.371 20.2268V20.2398ZM194.846 15.7808C192.48 15.7808 191.466 17.4188 191.323 18.8618H198.434C198.317 17.4838 197.355 15.7808 194.846 15.7808Z" fill="#05BB6D"/>
<path d="M212.552 27.4671L209.263 22.5921L205.948 27.4671H201.736L206.884 20.0571L202.035 13.0371H206.286L209.276 17.4571L212.24 13.0371H216.491L211.681 20.0571L216.829 27.4671H212.578H212.552Z" fill="#05BB6D"/>
<path d="M227.671 27.4684V25.6484C226.683 26.7274 224.954 27.8324 222.588 27.8324C219.416 27.8324 217.921 26.1034 217.921 23.2824V13.0254H221.717V21.7874C221.717 23.7894 222.757 24.4524 224.382 24.4524C225.851 24.4524 227.008 23.6464 227.671 22.8144V13.0384H231.467V27.4814H227.671V27.4684Z" fill="#05BB6D"/>
<path d="M233.235 25.5958L234.886 22.8398C235.965 23.8538 238.084 24.8418 239.878 24.8418C241.516 24.8418 242.296 24.2178 242.296 23.3208C242.296 20.9548 233.742 22.9048 233.742 17.2238C233.742 14.8058 235.835 12.6738 239.657 12.6738C242.075 12.6738 244.025 13.5058 245.455 14.6498L243.934 17.3408C243.063 16.4438 241.425 15.6638 239.657 15.6638C238.279 15.6638 237.382 16.2618 237.382 17.0678C237.382 19.1868 245.962 17.3928 245.962 23.2298C245.962 25.8948 243.687 27.8318 239.683 27.8318C237.174 27.8318 234.756 26.9998 233.222 25.5958H233.235Z" fill="#05BB6D"/>
<path d="M254.971 27.4691V13.0261H258.767V14.9631C259.807 13.7021 261.575 12.6621 263.369 12.6621V16.3671C263.096 16.3021 262.771 16.2761 262.329 16.2761C261.068 16.2761 259.404 16.9911 258.767 17.9271V27.4561H254.971V27.4691Z" fill="#05BB6D"/>
<path d="M264.071 20.2398C264.071 16.0538 267.178 12.6738 271.546 12.6738C275.914 12.6738 278.787 15.8978 278.787 20.5908V21.4878H268.049C268.322 23.2558 269.752 24.7118 272.209 24.7118C273.431 24.7118 275.108 24.2048 276.031 23.3078L277.734 25.8168C276.304 27.1298 274.029 27.8188 271.78 27.8188C267.386 27.8188 264.071 24.8548 264.071 20.2268V20.2398ZM271.546 15.7808C269.18 15.7808 268.166 17.4188 268.023 18.8618H275.134C275.017 17.4838 274.055 15.7808 271.546 15.7808Z" fill="#05BB6D"/>
<path d="M284.429 25.6218V32.9798H280.633V13.0378H284.429V14.8578C285.534 13.4538 287.12 12.6738 288.888 12.6738C292.593 12.6738 295.284 15.4298 295.284 20.2398C295.284 25.0498 292.593 27.8318 288.888 27.8318C287.185 27.8318 285.625 27.1168 284.429 25.6218ZM291.358 20.2398C291.358 17.7568 289.863 16.0538 287.679 16.0538C286.457 16.0538 285.079 16.7428 284.416 17.6918V22.7748C285.04 23.6978 286.444 24.4518 287.679 24.4518C289.863 24.4518 291.358 22.7488 291.358 20.2398Z" fill="#05BB6D"/>
<path d="M296.532 20.2398C296.532 16.1448 299.405 12.6738 304.15 12.6738C308.895 12.6738 311.807 16.1448 311.807 20.2398C311.807 24.3348 308.934 27.8318 304.15 27.8318C299.366 27.8318 296.532 24.3348 296.532 20.2398ZM307.868 20.2398C307.868 18.0038 306.555 16.0538 304.163 16.0538C301.771 16.0538 300.484 18.0038 300.484 20.2398C300.484 22.4758 301.797 24.4518 304.163 24.4518C306.529 24.4518 307.868 22.5018 307.868 20.2398Z" fill="#05BB6D"/>
<path d="M312.652 25.5958L314.303 22.8398C315.382 23.8538 317.501 24.8418 319.295 24.8418C320.933 24.8418 321.713 24.2178 321.713 23.3208C321.713 20.9548 313.159 22.9048 313.159 17.2238C313.159 14.8058 315.252 12.6738 319.074 12.6738C321.492 12.6738 323.442 13.5058 324.872 14.6498L323.351 17.3408C322.48 16.4438 320.842 15.6638 319.074 15.6638C317.696 15.6638 316.799 16.2618 316.799 17.0678C316.799 19.1868 325.379 17.3928 325.379 23.2298C325.379 25.8948 323.104 27.8318 319.1 27.8318C316.591 27.8318 314.173 26.9998 312.639 25.5958H312.652Z" fill="#05BB6D"/>
<path d="M327.056 9.2028C327.056 7.9418 328.07 6.9668 329.292 6.9668C330.514 6.9668 331.567 7.9548 331.567 9.2028C331.567 10.4508 330.553 11.4778 329.292 11.4778C328.031 11.4778 327.056 10.4638 327.056 9.2028ZM327.42 27.4678V13.0248H331.216V27.4678H327.42Z" fill="#05BB6D"/>
<path d="M335.61 23.8559V16.3549H333.218V13.0399H335.61V9.08789H339.406V13.0399H342.331V16.3549H339.406V22.8419C339.406 23.7649 339.887 24.4539 340.719 24.4539C341.291 24.4539 341.824 24.2459 342.032 24.0119L342.838 26.9109C342.266 27.4179 341.252 27.8339 339.666 27.8339C337.001 27.8339 335.597 26.4559 335.597 23.8559H335.61Z" fill="#05BB6D"/>
<path d="M342.669 20.2398C342.669 16.1448 345.542 12.6738 350.287 12.6738C355.032 12.6738 357.944 16.1448 357.944 20.2398C357.944 24.3348 355.071 27.8318 350.287 27.8318C345.503 27.8318 342.669 24.3348 342.669 20.2398ZM354.005 20.2398C354.005 18.0038 352.692 16.0538 350.3 16.0538C347.908 16.0538 346.621 18.0038 346.621 20.2398C346.621 22.4758 347.934 24.4518 350.3 24.4518C352.666 24.4518 354.005 22.5018 354.005 20.2398Z" fill="#05BB6D"/>
<path d="M359.439 27.4691V13.0261H363.235V14.9631C364.275 13.7021 366.043 12.6621 367.837 12.6621V16.3671C367.564 16.3021 367.239 16.2761 366.797 16.2761C365.536 16.2761 363.872 16.9911 363.235 17.9271V27.4561H359.439V27.4691Z" fill="#05BB6D"/>
<path d="M371.1 29.7161C371.425 29.8721 371.932 29.9501 372.296 29.9501C373.284 29.9501 373.947 29.6771 374.298 28.9101L374.831 27.6491L368.968 13.0371H373.037L376.807 23.0861L380.603 13.0371H384.672L377.886 29.8331C376.807 32.5501 374.896 33.2651 372.413 33.3301C371.997 33.3301 371.009 33.2391 370.554 33.0961L371.087 29.7161H371.1Z" fill="#05BB6D"/>
</svg>
