<?xml version="1.0" encoding="UTF-8"?>
<svg id="Layer_1" data-name="Layer 1" xmlns="http://www.w3.org/2000/svg" viewBox="0 0 61 61">
  <defs>
    <style>
      .cls-1 {
        fill: #00bd6c;
      }

      .cls-2 {
        fill: #00bb6c;
      }

      .cls-3 {
        fill: #1c1f2a;
      }
    </style>
  </defs>
  <g id="Sonatype_Logo_Favicon" data-name="Sonatype Logo Favicon">
    <polygon class="cls-1" points="55.82 27.51 55.82 34.24 40.05 43.47 36.05 45.81 36.04 45.81 30.31 49.16 24.57 45.8 20.56 43.46 4.82 34.24 4.82 27.53 10.71 30.98 10.71 31.02 26.26 40.11 30.28 42.46 30.31 42.48 30.34 42.46 34.34 40.12 49.91 31.02 49.91 30.96 55.82 27.51"/>
  </g>
  <g id="Sonatype_Logo_Favicon-2" data-name="Sonatype Logo Favicon">
    <polygon class="cls-3" points="55.82 38.34 55.82 45.06 40.05 54.3 36.05 56.64 36.04 56.64 30.31 59.99 24.57 56.62 20.56 54.28 4.82 45.06 4.82 38.35 10.71 41.8 10.71 41.85 26.26 50.93 30.28 53.29 30.31 53.3 30.34 53.29 34.34 50.95 49.91 41.85 49.91 41.79 55.82 38.34"/>
  </g>
  <g id="Sonatype_Logo_Favicon-3" data-name="Sonatype Logo Favicon">
    <path class="cls-3" d="m49.91,9.68v10.52l-15.57,9.1-4.01,2.34h-.03s-.03,0-.03,0l-4.02-2.36-15.55-9.08v-10.52h-5.89v13.73l15.74,9.22,4.01,2.34,5.74,3.36,5.73-3.35,4.01-2.34,15.77-9.23v-13.73h-5.91Z"/>
  </g>
  <path class="cls-2" d="m31.25,22.07v-11.01c.72-1.07,2.62-1.9,4.05-1.9.51,0,.88.04,1.19.1v-4.28c-2.04,0-4.05,1.21-5.24,2.66v-2.24h-4.32v16.67h4.32Z"/>
</svg>